<svg width="40" height="40" viewBox="0 0 40 40" fill="none" xmlns="http://www.w3.org/2000/svg">
<path d="M-1.74846e-06 20C-2.21217e-06 14.6957 2.10713 9.6086 5.85786 5.85787C9.60859 2.10714 14.6957 2.21217e-06 20 1.74846e-06C22.6264 1.51885e-06 25.2272 0.517316 27.6537 1.52241C30.0802 2.5275 32.285 4.00069 34.1421 5.85786C37.8929 9.60859 40 14.6957 40 20C40 25.3043 37.8929 30.3914 34.1421 34.1421C30.3914 37.8929 25.3043 40 20 40C17.3736 40 14.7728 39.4827 12.3463 38.4776C9.91982 37.4725 7.71503 35.9993 5.85786 34.1421C4.00069 32.285 2.5275 30.0802 1.52241 27.6537C0.517314 25.2272 -1.51885e-06 22.6264 -1.74846e-06 20ZM24 8L12 20L24 32L26.8 29.2L17.6 20L26.8 10.8L24 8Z" fill="#001D3D"/>
</svg>
